<?xml version="1.0" encoding="UTF-8" standalone="no"?>
<!DOCTYPE svg PUBLIC "-//W3C//DTD SVG 1.1//EN"
 "http://www.w3.org/Graphics/SVG/1.1/DTD/svg11.dtd">
<!-- Generated by graphviz version 8.0.5 (20230508.1809)
 -->
<!-- Title: G Pages: 1 -->
<svg width="1100pt" height="660pt"
 viewBox="0.00 0.00 1100.00 660.00" xmlns="http://www.w3.org/2000/svg" xmlns:xlink="http://www.w3.org/1999/xlink">
<g id="graph0" class="graph" transform="scale(1 1) rotate(0) translate(4 656)">
<title>G</title>
<g id="a_graph0"><a xlink:title="Build target = sprites1&#45;table&#45;32&#45;32.png&#10;Build target = sprites2&#45;table&#45;64&#45;64.png&#10;Build target = misc1&#45;table&#45;8&#45;16.png&#10;Build target = misc2&#45;table&#45;16&#45;16.png&#10;Build target = console&#45;table&#45;192&#45;128.png&#10;Build target = text&#45;table&#45;176&#45;16.png&#10;Build target = wall&#45;table&#45;8&#45;8.png&#10;Build target = floor&#45;table&#45;64&#45;64.png&#10;Build target = data.lua">
<polygon fill="white" stroke="none" points="-4,4 -4,-656 1096,-656 1096,4 -4,4"/>
</a>
</g>
<!-- n74 -->
<g id="node1" class="node">
<title>n74</title>
<g id="a_node1"><a xlink:title="cat t_animation_frames.lua t_velocities.lua t_converge_angles.lua t_atan.lua &gt; data.lua">
<polygon fill="white" stroke="#f6b19e" stroke-width="3" points="656.5,-117 597.75,-117 597.75,-81 656.5,-81 656.5,-117"/>
<text text-anchor="middle" x="627.12" y="-93.95" font-family="Times,serif" font-size="14.00">data.lua</text>
</a>
</g>
</g>
<!-- n87 -->
<g id="node2" class="node">
<title>n87</title>
<g id="a_node2"><a xlink:title="perl generate_atan.pl &gt; t_atan.lua">
<polygon fill="white" stroke="#dd1a23" points="836,-198 766.75,-198 766.75,-162 836,-162 836,-198"/>
<text text-anchor="middle" x="801.38" y="-174.95" font-family="Times,serif" font-size="14.00">t_atan.lua</text>
</a>
</g>
</g>
<!-- n87&#45;&gt;n74 -->
<g id="edge4" class="edge">
<title>n87&#45;&gt;n74</title>
<g id="a_edge4"><a xlink:title="data.lua : t_atan.lua">
<path fill="none" stroke="#dd1a23" d="M766.51,-186C715.62,-186 627,-186 627,-186 627,-186 627,-129.31 627,-129.31"/>
<polygon fill="#dd1a23" stroke="#dd1a23" points="630.5,-129.31 627,-119.31 623.5,-129.31 630.5,-129.31"/>
</a>
</g>
</g>
<!-- n113 -->
<g id="node3" class="node">
<title>n113</title>
<g id="a_node3"><a xlink:title="generate_atan.pl&#10;(no actions)">
<polygon fill="white" stroke="#95e30a" points="1053.75,-198 948.5,-198 948.5,-162 1053.75,-162 1053.75,-198"/>
<text text-anchor="middle" x="1001.12" y="-174.95" font-family="Times,serif" font-size="14.00">generate_atan.pl</text>
</a>
</g>
</g>
<!-- n113&#45;&gt;n87 -->
<g id="edge5" class="edge">
<title>n113&#45;&gt;n87</title>
<g id="a_edge5"><a xlink:title="t_atan.lua : generate_atan.pl">
<path fill="none" stroke="#95e30a" d="M948.12,-180C948.12,-180 847.35,-180 847.35,-180"/>
<polygon fill="#95e30a" stroke="#95e30a" points="847.35,-176.5 837.35,-180 847.35,-183.5 847.35,-176.5"/>
</a>
</g>
</g>
<!-- n86 -->
<g id="node4" class="node">
<title>n86</title>
<g id="a_node4"><a xlink:title="perl generate_converge_angles.pl &gt; t_converge_angles.lua">
<polygon fill="white" stroke="#f1105a" points="870.12,-144 732.62,-144 732.62,-108 870.12,-108 870.12,-144"/>
<text text-anchor="middle" x="801.38" y="-120.95" font-family="Times,serif" font-size="14.00">t_converge_angles.lua</text>
</a>
</g>
</g>
<!-- n86&#45;&gt;n74 -->
<g id="edge3" class="edge">
<title>n86&#45;&gt;n74</title>
<g id="a_edge3"><a xlink:title="data.lua : t_converge_angles.lua">
<path fill="none" stroke="#f1105a" d="M732.26,-112.5C732.26,-112.5 668.73,-112.5 668.73,-112.5"/>
<polygon fill="#f1105a" stroke="#f1105a" points="668.73,-109 658.73,-112.5 668.73,-116 668.73,-109"/>
</a>
</g>
</g>
<!-- n112 -->
<g id="node5" class="node">
<title>n112</title>
<g id="a_node5"><a xlink:title="generate_converge_angles.pl&#10;(no actions)">
<polygon fill="white" stroke="#279883" points="1087.88,-144 914.38,-144 914.38,-108 1087.88,-108 1087.88,-144"/>
<text text-anchor="middle" x="1001.12" y="-120.95" font-family="Times,serif" font-size="14.00">generate_converge_angles.pl</text>
</a>
</g>
</g>
<!-- n112&#45;&gt;n86 -->
<g id="edge6" class="edge">
<title>n112&#45;&gt;n86</title>
<g id="a_edge6"><a xlink:title="t_converge_angles.lua : generate_converge_angles.pl">
<path fill="none" stroke="#279883" d="M914.09,-126C914.09,-126 881.41,-126 881.41,-126"/>
<polygon fill="#279883" stroke="#279883" points="881.41,-122.5 871.41,-126 881.41,-129.5 881.41,-122.5"/>
</a>
</g>
</g>
<!-- n85 -->
<g id="node6" class="node">
<title>n85</title>
<g id="a_node6"><a xlink:title="perl generate_velocities.pl &gt; t_velocities.lua">
<polygon fill="white" stroke="#51c119" points="850.62,-90 752.12,-90 752.12,-54 850.62,-54 850.62,-90"/>
<text text-anchor="middle" x="801.38" y="-66.95" font-family="Times,serif" font-size="14.00">t_velocities.lua</text>
</a>
</g>
</g>
<!-- n85&#45;&gt;n74 -->
<g id="edge2" class="edge">
<title>n85&#45;&gt;n74</title>
<g id="a_edge2"><a xlink:title="data.lua : t_velocities.lua">
<path fill="none" stroke="#51c119" d="M751.91,-87C751.91,-87 668.8,-87 668.8,-87"/>
<polygon fill="#51c119" stroke="#51c119" points="668.8,-83.5 658.8,-87 668.8,-90.5 668.8,-83.5"/>
</a>
</g>
</g>
<!-- n111 -->
<g id="node7" class="node">
<title>n111</title>
<g id="a_node7"><a xlink:title="generate_velocities.pl&#10;(no actions)">
<polygon fill="white" stroke="#dd7d92" points="1068.38,-90 933.88,-90 933.88,-54 1068.38,-54 1068.38,-90"/>
<text text-anchor="middle" x="1001.12" y="-66.95" font-family="Times,serif" font-size="14.00">generate_velocities.pl</text>
</a>
</g>
</g>
<!-- n111&#45;&gt;n85 -->
<g id="edge7" class="edge">
<title>n111&#45;&gt;n85</title>
<g id="a_edge7"><a xlink:title="t_velocities.lua : generate_velocities.pl">
<path fill="none" stroke="#dd7d92" d="M933.5,-72C933.5,-72 861.94,-72 861.94,-72"/>
<polygon fill="#dd7d92" stroke="#dd7d92" points="861.94,-68.5 851.94,-72 861.94,-75.5 861.94,-68.5"/>
</a>
</g>
</g>
<!-- n84 -->
<g id="node8" class="node">
<title>n84</title>
<g id="a_node8"><a xlink:title="perl generate_animation_frames.pl &gt; t_animation_frames.lua">
<polygon fill="white" stroke="#e0498c" points="874.25,-36 728.5,-36 728.5,0 874.25,0 874.25,-36"/>
<text text-anchor="middle" x="801.38" y="-12.95" font-family="Times,serif" font-size="14.00">t_animation_frames.lua</text>
</a>
</g>
</g>
<!-- n84&#45;&gt;n74 -->
<g id="edge1" class="edge">
<title>n84&#45;&gt;n74</title>
<g id="a_edge1"><a xlink:title="data.lua : t_animation_frames.lua">
<path fill="none" stroke="#e0498c" d="M742,-36.38C742,-55.91 742,-84 742,-84 742,-84 668.91,-84 668.91,-84"/>
<polygon fill="#e0498c" stroke="#e0498c" points="668.91,-80.5 658.91,-84 668.91,-87.5 668.91,-80.5"/>
</a>
</g>
</g>
<!-- n110 -->
<g id="node9" class="node">
<title>n110</title>
<g id="a_node9"><a xlink:title="generate_animation_frames.pl&#10;(no actions)">
<polygon fill="white" stroke="#21ed24" points="1092,-36 910.25,-36 910.25,0 1092,0 1092,-36"/>
<text text-anchor="middle" x="1001.12" y="-12.95" font-family="Times,serif" font-size="14.00">generate_animation_frames.pl</text>
</a>
</g>
</g>
<!-- n110&#45;&gt;n84 -->
<g id="edge8" class="edge">
<title>n110&#45;&gt;n84</title>
<g id="a_edge8"><a xlink:title="t_animation_frames.lua : generate_animation_frames.pl">
<path fill="none" stroke="#21ed24" d="M910.02,-18C910.02,-18 885.69,-18 885.69,-18"/>
<polygon fill="#21ed24" stroke="#21ed24" points="885.69,-14.5 875.69,-18 885.69,-21.5 885.69,-14.5"/>
</a>
</g>
</g>
<!-- n8 -->
<g id="node10" class="node">
<title>n8</title>
<g id="a_node10"><a xlink:title="perl optimize_png.pl t_floor_table.png &gt; floor&#45;table&#45;64&#45;64.png">
<polygon fill="white" stroke="#6772eb" stroke-width="3" points="332,-652 199,-652 199,-616 332,-616 332,-652"/>
<text text-anchor="middle" x="265.5" y="-628.95" font-family="Times,serif" font-size="14.00">floor&#45;table&#45;64&#45;64.png</text>
</a>
</g>
</g>
<!-- n83 -->
<g id="node11" class="node">
<title>n83</title>
<g id="a_node11"><a xlink:title="./dither.exe t_gray_floor.png &#45; | ./crop_table.exe 128 128 64 64 32 32 &gt; t_floor_table.png">
<polygon fill="white" stroke="#46cc81" points="508.88,-630 399.12,-630 399.12,-594 508.88,-594 508.88,-630"/>
<text text-anchor="middle" x="454" y="-606.95" font-family="Times,serif" font-size="14.00">t_floor_table.png</text>
</a>
</g>
</g>
<!-- n83&#45;&gt;n8 -->
<g id="edge10" class="edge">
<title>n83&#45;&gt;n8</title>
<g id="a_edge10"><a xlink:title="floor&#45;table&#45;64&#45;64.png : t_floor_table.png">
<path fill="none" stroke="#46cc81" d="M398.72,-625.33C398.72,-625.33 344.49,-625.33 344.49,-625.33"/>
<polygon fill="#46cc81" stroke="#46cc81" points="344.49,-621.83 334.49,-625.33 344.49,-628.83 344.49,-621.83"/>
</a>
</g>
</g>
<!-- n106 -->
<g id="node12" class="node">
<title>n106</title>
<g id="a_node12"><a xlink:title="gcc &#45;march=native &#45;O3 &#45;Wall &#45;Wextra &#45;pedantic crop_table.c &#45;lpng &#45;o crop_table.exe">
<polygon fill="white" stroke="#1a3284" points="674.88,-630 579.38,-630 579.38,-594 674.88,-594 674.88,-630"/>
<text text-anchor="middle" x="627.12" y="-606.95" font-family="Times,serif" font-size="14.00">crop_table.exe</text>
</a>
</g>
</g>
<!-- n106&#45;&gt;n83 -->
<g id="edge13" class="edge">
<title>n106&#45;&gt;n83</title>
<g id="a_edge13"><a xlink:title="t_floor_table.png : crop_table.exe">
<path fill="none" stroke="#1a3284" d="M578.9,-621C578.9,-621 520.3,-621 520.3,-621"/>
<polygon fill="#1a3284" stroke="#1a3284" points="520.3,-617.5 510.3,-621 520.3,-624.5 520.3,-617.5"/>
</a>
</g>
</g>
<!-- n120 -->
<g id="node13" class="node">
<title>n120</title>
<g id="a_node13"><a xlink:title="crop_table.c&#10;(no actions)">
<polygon fill="white" stroke="#b11273" points="842.75,-630 760,-630 760,-594 842.75,-594 842.75,-630"/>
<text text-anchor="middle" x="801.38" y="-606.95" font-family="Times,serif" font-size="14.00">crop_table.c</text>
</a>
</g>
</g>
<!-- n120&#45;&gt;n106 -->
<g id="edge14" class="edge">
<title>n120&#45;&gt;n106</title>
<g id="a_edge14"><a xlink:title="crop_table.exe : crop_table.c">
<path fill="none" stroke="#b11273" d="M759.64,-612C759.64,-612 686.31,-612 686.31,-612"/>
<polygon fill="#b11273" stroke="#b11273" points="686.31,-608.5 676.31,-612 686.31,-615.5 686.31,-608.5"/>
</a>
</g>
</g>
<!-- n105 -->
<g id="node14" class="node">
<title>n105</title>
<g id="a_node14"><a xlink:title="./svg_to_png.sh t_floor.svg t_gray_floor.png 32 32 2080 2208">
<polygon fill="white" stroke="#bd9ede" points="680.5,-576 573.75,-576 573.75,-540 680.5,-540 680.5,-576"/>
<text text-anchor="middle" x="627.12" y="-552.95" font-family="Times,serif" font-size="14.00">t_gray_floor.png</text>
</a>
</g>
</g>
<!-- n105&#45;&gt;n83 -->
<g id="edge12" class="edge">
<title>n105&#45;&gt;n83</title>
<g id="a_edge12"><a xlink:title="t_floor_table.png : t_gray_floor.png">
<path fill="none" stroke="#bd9ede" d="M573.43,-558C569.48,-558 567,-558 567,-558 567,-558 567,-612 567,-612 567,-612 520.18,-612 520.18,-612"/>
<polygon fill="#bd9ede" stroke="#bd9ede" points="520.18,-608.5 510.18,-612 520.18,-615.5 520.18,-608.5"/>
</a>
</g>
</g>
<!-- n108 -->
<g id="node15" class="node">
<title>n108</title>
<g id="a_node15"><a xlink:title="perl select_layers.pl &#39;^floor.*&#39; t_gray_floor.png floor.svg | perl remove_unused_defs.pl &gt; t_floor.svg">
<polygon fill="white" stroke="#0b747c" points="838.62,-576 764.12,-576 764.12,-540 838.62,-540 838.62,-576"/>
<text text-anchor="middle" x="801.38" y="-552.95" font-family="Times,serif" font-size="14.00">t_floor.svg</text>
</a>
</g>
</g>
<!-- n108&#45;&gt;n105 -->
<g id="edge16" class="edge">
<title>n108&#45;&gt;n105</title>
<g id="a_edge16"><a xlink:title="t_gray_floor.png : t_floor.svg">
<path fill="none" stroke="#0b747c" d="M763.99,-564C763.99,-564 691.98,-564 691.98,-564"/>
<polygon fill="#0b747c" stroke="#0b747c" points="691.98,-560.5 681.98,-564 691.98,-567.5 691.98,-560.5"/>
</a>
</g>
</g>
<!-- n109 -->
<g id="node16" class="node">
<title>n109</title>
<g id="a_node16"><a xlink:title="floor.svg&#10;(no actions)">
<polygon fill="white" stroke="#d69bb7" points="1033.12,-576 969.12,-576 969.12,-540 1033.12,-540 1033.12,-576"/>
<text text-anchor="middle" x="1001.12" y="-552.95" font-family="Times,serif" font-size="14.00">floor.svg</text>
</a>
</g>
</g>
<!-- n109&#45;&gt;n108 -->
<g id="edge19" class="edge">
<title>n109&#45;&gt;n108</title>
<g id="a_edge19"><a xlink:title="t_floor.svg : floor.svg">
<path fill="none" stroke="#d69bb7" d="M969.03,-567C969.03,-567 849.83,-567 849.83,-567"/>
<polygon fill="#d69bb7" stroke="#d69bb7" points="849.83,-563.5 839.83,-567 849.83,-570.5 849.83,-563.5"/>
</a>
</g>
</g>
<!-- n100 -->
<g id="node17" class="node">
<title>n100</title>
<g id="a_node17"><a xlink:title="remove_unused_defs.pl&#10;(no actions)">
<polygon fill="white" stroke="#3e3fb6" points="1074,-468 928.25,-468 928.25,-432 1074,-432 1074,-468"/>
<text text-anchor="middle" x="1001.12" y="-444.95" font-family="Times,serif" font-size="14.00">remove_unused_defs.pl</text>
</a>
</g>
</g>
<!-- n100&#45;&gt;n108 -->
<g id="edge18" class="edge">
<title>n100&#45;&gt;n108</title>
<g id="a_edge18"><a xlink:title="t_floor.svg : remove_unused_defs.pl">
<path fill="none" stroke="#3e3fb6" d="M948,-468.32C948,-499.13 948,-558 948,-558 948,-558 849.75,-558 849.75,-558"/>
<polygon fill="#3e3fb6" stroke="#3e3fb6" points="849.75,-554.5 839.75,-558 849.75,-561.5 849.75,-554.5"/>
</a>
</g>
</g>
<!-- n103 -->
<g id="node29" class="node">
<title>n103</title>
<g id="a_node29"><a xlink:title="perl select_layers.pl &#39;^ui.*&#39; t_gray_misc.png misc.svg | perl remove_unused_defs.pl &gt; t_misc.svg">
<polygon fill="white" stroke="#6a66f2" points="839,-468 763.75,-468 763.75,-432 839,-432 839,-468"/>
<text text-anchor="middle" x="801.38" y="-444.95" font-family="Times,serif" font-size="14.00">t_misc.svg</text>
</a>
</g>
</g>
<!-- n100&#45;&gt;n103 -->
<g id="edge31" class="edge">
<title>n100&#45;&gt;n103</title>
<g id="a_edge31"><a xlink:title="t_misc.svg : remove_unused_defs.pl">
<path fill="none" stroke="#3e3fb6" d="M927.88,-456C927.88,-456 850.3,-456 850.3,-456"/>
<polygon fill="#3e3fb6" stroke="#3e3fb6" points="850.3,-452.5 840.3,-456 850.3,-459.5 850.3,-452.5"/>
</a>
</g>
</g>
<!-- n91 -->
<g id="node41" class="node">
<title>n91</title>
<g id="a_node41"><a xlink:title="perl select_layers.pl &#39;rocks|papers|scissors|slimes&#39; t_gray_sprites.png sprites.svg | perl remove_unused_defs.pl | perl add_rocks.pl &#45; | perl add_papers.pl &#45; &gt; t_sprites.svg">
<polygon fill="white" stroke="#dc0086" points="843.5,-360 759.25,-360 759.25,-324 843.5,-324 843.5,-360"/>
<text text-anchor="middle" x="801.38" y="-336.95" font-family="Times,serif" font-size="14.00">t_sprites.svg</text>
</a>
</g>
</g>
<!-- n100&#45;&gt;n91 -->
<g id="edge54" class="edge">
<title>n100&#45;&gt;n91</title>
<g id="a_edge54"><a xlink:title="t_sprites.svg : remove_unused_defs.pl">
<path fill="none" stroke="#3e3fb6" d="M938,-431.81C938,-401.9 938,-345.6 938,-345.6 938,-345.6 854.86,-345.6 854.86,-345.6"/>
<polygon fill="#3e3fb6" stroke="#3e3fb6" points="854.86,-342.1 844.86,-345.6 854.86,-349.1 854.86,-342.1"/>
</a>
</g>
</g>
<!-- n99 -->
<g id="node18" class="node">
<title>n99</title>
<g id="a_node18"><a xlink:title="select_layers.pl&#10;(no actions)">
<polygon fill="white" stroke="#a4c629" points="1051.12,-414 951.12,-414 951.12,-378 1051.12,-378 1051.12,-414"/>
<text text-anchor="middle" x="1001.12" y="-390.95" font-family="Times,serif" font-size="14.00">select_layers.pl</text>
</a>
</g>
</g>
<!-- n99&#45;&gt;n108 -->
<g id="edge17" class="edge">
<title>n99&#45;&gt;n108</title>
<g id="a_edge17"><a xlink:title="t_floor.svg : select_layers.pl">
<path fill="none" stroke="#a4c629" d="M950.77,-405C936.62,-405 925,-405 925,-405 925,-405 925,-549 925,-549 925,-549 849.8,-549 849.8,-549"/>
<polygon fill="#a4c629" stroke="#a4c629" points="849.8,-545.5 839.8,-549 849.8,-552.5 849.8,-545.5"/>
</a>
</g>
</g>
<!-- n99&#45;&gt;n103 -->
<g id="edge30" class="edge">
<title>n99&#45;&gt;n103</title>
<g id="a_edge30"><a xlink:title="t_misc.svg : select_layers.pl">
<path fill="none" stroke="#a4c629" d="M950.73,-396C932.82,-396 917,-396 917,-396 917,-396 917,-444 917,-444 917,-444 850.23,-444 850.23,-444"/>
<polygon fill="#a4c629" stroke="#a4c629" points="850.23,-440.5 840.23,-444 850.23,-447.5 850.23,-440.5"/>
</a>
</g>
</g>
<!-- n99&#45;&gt;n91 -->
<g id="edge53" class="edge">
<title>n99&#45;&gt;n91</title>
<g id="a_edge53"><a xlink:title="t_sprites.svg : select_layers.pl">
<path fill="none" stroke="#a4c629" d="M950.99,-387C933.89,-387 919,-387 919,-387 919,-387 919,-352.8 919,-352.8 919,-352.8 854.84,-352.8 854.84,-352.8"/>
<polygon fill="#a4c629" stroke="#a4c629" points="854.84,-349.3 844.84,-352.8 854.84,-356.3 854.84,-349.3"/>
</a>
</g>
</g>
<!-- n92 -->
<g id="node19" class="node">
<title>n92</title>
<g id="a_node19"><a xlink:title="svg_to_png.sh&#10;(no actions)">
<polygon fill="white" stroke="#f0b2a3" points="848.75,-414 754,-414 754,-378 848.75,-378 848.75,-414"/>
<text text-anchor="middle" x="801.38" y="-390.95" font-family="Times,serif" font-size="14.00">svg_to_png.sh</text>
</a>
</g>
</g>
<!-- n92&#45;&gt;n105 -->
<g id="edge15" class="edge">
<title>n92&#45;&gt;n105</title>
<g id="a_edge15"><a xlink:title="t_gray_floor.png : svg_to_png.sh">
<path fill="none" stroke="#f0b2a3" d="M753.71,-396C750.2,-396 748,-396 748,-396 748,-396 748,-552 748,-552 748,-552 691.85,-552 691.85,-552"/>
<polygon fill="#f0b2a3" stroke="#f0b2a3" points="691.85,-548.5 681.85,-552 691.85,-555.5 691.85,-548.5"/>
</a>
</g>
</g>
<!-- n95 -->
<g id="node28" class="node">
<title>n95</title>
<g id="a_node28"><a xlink:title="./svg_to_png.sh t_misc.svg t_gray_misc.png">
<polygon fill="white" stroke="#8d3bfa" points="680.88,-414 573.38,-414 573.38,-378 680.88,-378 680.88,-414"/>
<text text-anchor="middle" x="627.12" y="-390.95" font-family="Times,serif" font-size="14.00">t_gray_misc.png</text>
</a>
</g>
</g>
<!-- n92&#45;&gt;n95 -->
<g id="edge28" class="edge">
<title>n92&#45;&gt;n95</title>
<g id="a_edge28"><a xlink:title="t_gray_misc.png : svg_to_png.sh">
<path fill="none" stroke="#f0b2a3" d="M753.76,-405C753.76,-405 692.14,-405 692.14,-405"/>
<polygon fill="#f0b2a3" stroke="#f0b2a3" points="692.14,-401.5 682.14,-405 692.14,-408.5 692.14,-401.5"/>
</a>
</g>
</g>
<!-- n97 -->
<g id="node40" class="node">
<title>n97</title>
<g id="a_node40"><a xlink:title="./svg_to_png.sh t_sprites.svg t_gray_sprites.png">
<polygon fill="white" stroke="#e9425a" points="685.38,-360 568.88,-360 568.88,-324 685.38,-324 685.38,-360"/>
<text text-anchor="middle" x="627.12" y="-336.95" font-family="Times,serif" font-size="14.00">t_gray_sprites.png</text>
</a>
</g>
</g>
<!-- n92&#45;&gt;n97 -->
<g id="edge51" class="edge">
<title>n92&#45;&gt;n97</title>
<g id="a_edge51"><a xlink:title="t_gray_sprites.png : svg_to_png.sh">
<path fill="none" stroke="#f0b2a3" d="M753.58,-387C744.1,-387 737,-387 737,-387 737,-387 737,-348 737,-348 737,-348 696.6,-348 696.6,-348"/>
<polygon fill="#f0b2a3" stroke="#f0b2a3" points="696.6,-344.5 686.6,-348 696.6,-351.5 696.6,-344.5"/>
</a>
</g>
</g>
<!-- n96 -->
<g id="node20" class="node">
<title>n96</title>
<g id="a_node20"><a xlink:title="gcc &#45;march=native &#45;O3 &#45;Wall &#45;Wextra &#45;pedantic dither.c &#45;lpng &#45;o dither.exe">
<polygon fill="white" stroke="#4d1590" points="661.75,-468 592.5,-468 592.5,-432 661.75,-432 661.75,-468"/>
<text text-anchor="middle" x="627.12" y="-444.95" font-family="Times,serif" font-size="14.00">dither.exe</text>
</a>
</g>
</g>
<!-- n96&#45;&gt;n83 -->
<g id="edge11" class="edge">
<title>n96&#45;&gt;n83</title>
<g id="a_edge11"><a xlink:title="t_floor_table.png : dither.exe">
<path fill="none" stroke="#4d1590" d="M592.42,-462C569.25,-462 543,-462 543,-462 543,-462 543,-603 543,-603 543,-603 520.35,-603 520.35,-603"/>
<polygon fill="#4d1590" stroke="#4d1590" points="520.35,-599.5 510.35,-603 520.35,-606.5 520.35,-599.5"/>
</a>
</g>
</g>
<!-- n81 -->
<g id="node27" class="node">
<title>n81</title>
<g id="a_node27"><a xlink:title="convert t_gray_misc.png +repage &#45;crop 176x304+0+16 png:&#45; | ./dither.exe &#45; t_text_table.png">
<polygon fill="white" stroke="#2ba07a" points="505.88,-522 402.12,-522 402.12,-486 505.88,-486 505.88,-522"/>
<text text-anchor="middle" x="454" y="-498.95" font-family="Times,serif" font-size="14.00">t_text_table.png</text>
</a>
</g>
</g>
<!-- n96&#45;&gt;n81 -->
<g id="edge27" class="edge">
<title>n96&#45;&gt;n81</title>
<g id="a_edge27"><a xlink:title="t_text_table.png : dither.exe">
<path fill="none" stroke="#4d1590" d="M592.05,-456C560.81,-456 520,-456 520,-456 520,-456 520,-504 520,-504 520,-504 517.32,-504 517.32,-504"/>
<polygon fill="#4d1590" stroke="#4d1590" points="517.32,-500.5 507.32,-504 517.32,-507.5 517.32,-500.5"/>
</a>
</g>
</g>
<!-- n80 -->
<g id="node32" class="node">
<title>n80</title>
<g id="a_node32"><a xlink:title="convert &#45;size 1728x128 &#39;xc:rgba(0,0,0,0)&#39; 	&quot;(&quot; t_gray_misc.png +repage &#45;crop 133x128+192+32 &quot;)&quot; &#45;geometry +29+0 &#45;composite 	&quot;(&quot; t_gray_misc.png +repage &#45;crop 192x128+334+45 &quot;)&quot; &#45;geometry +192+0 &#45;composite 	&quot;(&quot; t_gray_misc.png +repage &#45;crop 192x128+654+525 &quot;)&quot; &#45;geometry +384+0 &#45;composite 	&quot;(&quot; t_gray_misc.png +repage &#45;crop 192x128+654+205 &quot;)&quot; &#45;geometry +576+0 &#45;composite 	&quot;(&quot; t_gray_misc.png +repage &#45;crop 192x128+654+365 &quot;)&quot; &#45;geometry +768+0 &#45;composite 	&quot;(&quot; t_gray_misc.png +repage &#45;crop 192x128+654+45 &quot;)&quot; &#45;geometry +960+0 &#45;composite 	&quot;(&quot; t_gray_misc.png +repage &#45;crop 192x128+334+525 &quot;)&quot; &#45;geometry +1152+0 &#45;composite 	&quot;(&quot; t_gray_misc.png +repage &#45;crop 192x128+334+205 &quot;)&quot; &#45;geometry +1344+0 &#45;composite 	&quot;(&quot; t_gray_misc.png +repage &#45;crop 192x128+334+365 &quot;)&quot; &#45;geometry +1536+0 &#45;composite 	png:&#45; | ./dither.exe &#45; t_console_table.png">
<polygon fill="white" stroke="#55ed24" points="516.38,-414 391.62,-414 391.62,-378 516.38,-378 516.38,-414"/>
<text text-anchor="middle" x="454" y="-390.95" font-family="Times,serif" font-size="14.00">t_console_table.png</text>
</a>
</g>
</g>
<!-- n96&#45;&gt;n80 -->
<g id="edge36" class="edge">
<title>n96&#45;&gt;n80</title>
<g id="a_edge36"><a xlink:title="t_console_table.png : dither.exe">
<path fill="none" stroke="#4d1590" d="M592.28,-450C558.08,-450 511,-450 511,-450 511,-450 511,-425.28 511,-425.28"/>
<polygon fill="#4d1590" stroke="#4d1590" points="514.5,-425.28 511,-415.28 507.5,-425.28 514.5,-425.28"/>
</a>
</g>
</g>
<!-- n79 -->
<g id="node34" class="node">
<title>n79</title>
<g id="a_node34"><a xlink:title="convert t_gray_misc.png +repage &#45;crop 176x16+160+0 png:&#45; | ./dither.exe &#45; t_misc2_table.png">
<polygon fill="white" stroke="#b1e1db" points="512.25,-360 395.75,-360 395.75,-324 512.25,-324 512.25,-360"/>
<text text-anchor="middle" x="454" y="-336.95" font-family="Times,serif" font-size="14.00">t_misc2_table.png</text>
</a>
</g>
</g>
<!-- n96&#45;&gt;n79 -->
<g id="edge40" class="edge">
<title>n96&#45;&gt;n79</title>
<g id="a_edge40"><a xlink:title="t_misc2_table.png : dither.exe">
<path fill="none" stroke="#4d1590" d="M592.06,-438C577.09,-438 563,-438 563,-438 563,-438 563,-348 563,-348 563,-348 523.65,-348 523.65,-348"/>
<polygon fill="#4d1590" stroke="#4d1590" points="523.65,-344.5 513.65,-348 523.65,-351.5 523.65,-344.5"/>
</a>
</g>
</g>
<!-- n78 -->
<g id="node36" class="node">
<title>n78</title>
<g id="a_node36"><a xlink:title="convert t_gray_misc.png +repage &#45;crop 160x16+0+0 png:&#45; | ./dither.exe &#45; t_misc1_table.png">
<polygon fill="white" stroke="#f686ef" points="512.25,-306 395.75,-306 395.75,-270 512.25,-270 512.25,-306"/>
<text text-anchor="middle" x="454" y="-282.95" font-family="Times,serif" font-size="14.00">t_misc1_table.png</text>
</a>
</g>
</g>
<!-- n96&#45;&gt;n78 -->
<g id="edge44" class="edge">
<title>n96&#45;&gt;n78</title>
<g id="a_edge44"><a xlink:title="t_misc1_table.png : dither.exe">
<path fill="none" stroke="#4d1590" d="M592.16,-444C561.91,-444 523,-444 523,-444 523,-444 523,-297 523,-297 523,-297 521.95,-297 521.95,-297"/>
<polygon fill="#4d1590" stroke="#4d1590" points="523.52,-293.5 513.52,-297 523.52,-300.5 523.52,-293.5"/>
</a>
</g>
</g>
<!-- n114 -->
<g id="node21" class="node">
<title>n114</title>
<g id="a_node21"><a xlink:title="dither.c&#10;(no actions)">
<polygon fill="white" stroke="#f6f496" points="829.62,-522 773.12,-522 773.12,-486 829.62,-486 829.62,-522"/>
<text text-anchor="middle" x="801.38" y="-498.95" font-family="Times,serif" font-size="14.00">dither.c</text>
</a>
</g>
</g>
<!-- n114&#45;&gt;n96 -->
<g id="edge20" class="edge">
<title>n114&#45;&gt;n96</title>
<g id="a_edge20"><a xlink:title="dither.exe : dither.c">
<path fill="none" stroke="#f6f496" d="M772.87,-504C758.05,-504 743,-504 743,-504 743,-504 743,-444 743,-444 743,-444 673.21,-444 673.21,-444"/>
<polygon fill="#f6f496" stroke="#f6f496" points="673.21,-440.5 663.21,-444 673.21,-447.5 673.21,-440.5"/>
</a>
</g>
</g>
<!-- n76 -->
<g id="node22" class="node">
<title>n76</title>
<g id="a_node22"><a xlink:title="optimize_png.pl&#10;(no actions)">
<polygon fill="white" stroke="#5de9c5" points="506.62,-468 401.38,-468 401.38,-432 506.62,-432 506.62,-468"/>
<text text-anchor="middle" x="454" y="-444.95" font-family="Times,serif" font-size="14.00">optimize_png.pl</text>
</a>
</g>
</g>
<!-- n76&#45;&gt;n8 -->
<g id="edge9" class="edge">
<title>n76&#45;&gt;n8</title>
<g id="a_edge9"><a xlink:title="floor&#45;table&#45;64&#45;64.png : optimize_png.pl">
<path fill="none" stroke="#5de9c5" d="M400.95,-464C372,-464 342,-464 342,-464 342,-464 342,-620.67 342,-620.67 342,-620.67 341.12,-620.67 341.12,-620.67"/>
<polygon fill="#5de9c5" stroke="#5de9c5" points="344.22,-617.17 334.22,-620.67 344.22,-624.17 344.22,-617.17"/>
</a>
</g>
</g>
<!-- n7 -->
<g id="node23" class="node">
<title>n7</title>
<g id="a_node23"><a xlink:title="./generate_wall_tiles.exe &#45; | perl optimize_png.pl &gt; wall&#45;table&#45;8&#45;8.png">
<polygon fill="white" stroke="#cbdc8d" stroke-width="3" points="323.75,-598 207.25,-598 207.25,-562 323.75,-562 323.75,-598"/>
<text text-anchor="middle" x="265.5" y="-574.95" font-family="Times,serif" font-size="14.00">wall&#45;table&#45;8&#45;8.png</text>
</a>
</g>
</g>
<!-- n76&#45;&gt;n7 -->
<g id="edge21" class="edge">
<title>n76&#45;&gt;n7</title>
<g id="a_edge21"><a xlink:title="wall&#45;table&#45;8&#45;8.png : optimize_png.pl">
<path fill="none" stroke="#5de9c5" d="M400.88,-460C370.74,-460 339,-460 339,-460 339,-460 339,-566.67 339,-566.67 339,-566.67 336.18,-566.67 336.18,-566.67"/>
<polygon fill="#5de9c5" stroke="#5de9c5" points="336.18,-563.17 326.18,-566.67 336.18,-570.17 336.18,-563.17"/>
</a>
</g>
</g>
<!-- n6 -->
<g id="node26" class="node">
<title>n6</title>
<g id="a_node26"><a xlink:title="perl optimize_png.pl t_text_table.png &gt; text&#45;table&#45;176&#45;16.png">
<polygon fill="white" stroke="#a1d3f0" stroke-width="3" points="332.38,-544 198.62,-544 198.62,-508 332.38,-508 332.38,-544"/>
<text text-anchor="middle" x="265.5" y="-520.95" font-family="Times,serif" font-size="14.00">text&#45;table&#45;176&#45;16.png</text>
</a>
</g>
</g>
<!-- n76&#45;&gt;n6 -->
<g id="edge24" class="edge">
<title>n76&#45;&gt;n6</title>
<g id="a_edge24"><a xlink:title="text&#45;table&#45;176&#45;16.png : optimize_png.pl">
<path fill="none" stroke="#5de9c5" d="M401.1,-456C345.19,-456 265,-456 265,-456 265,-456 265,-495.5 265,-495.5"/>
<polygon fill="#5de9c5" stroke="#5de9c5" points="261.5,-495.5 265,-505.5 268.5,-495.5 261.5,-495.5"/>
</a>
</g>
</g>
<!-- n5 -->
<g id="node31" class="node">
<title>n5</title>
<g id="a_node31"><a xlink:title="perl optimize_png.pl t_console_table.png &gt; console&#45;table&#45;192&#45;128.png">
<polygon fill="white" stroke="#2b9d90" stroke-width="3" points="346.25,-414 184.75,-414 184.75,-378 346.25,-378 346.25,-414"/>
<text text-anchor="middle" x="265.5" y="-390.95" font-family="Times,serif" font-size="14.00">console&#45;table&#45;192&#45;128.png</text>
</a>
</g>
</g>
<!-- n76&#45;&gt;n5 -->
<g id="edge33" class="edge">
<title>n76&#45;&gt;n5</title>
<g id="a_edge33"><a xlink:title="console&#45;table&#45;192&#45;128.png : optimize_png.pl">
<path fill="none" stroke="#5de9c5" d="M401.11,-452C369.33,-452 335,-452 335,-452 335,-452 335,-426.27 335,-426.27"/>
<polygon fill="#5de9c5" stroke="#5de9c5" points="338.5,-426.27 335,-416.27 331.5,-426.27 338.5,-426.27"/>
</a>
</g>
</g>
<!-- n4 -->
<g id="node33" class="node">
<title>n4</title>
<g id="a_node33"><a xlink:title="perl optimize_png.pl t_misc2_table.png &gt; misc2&#45;table&#45;16&#45;16.png">
<polygon fill="white" stroke="#6640f0" stroke-width="3" points="335.38,-360 195.62,-360 195.62,-324 335.38,-324 335.38,-360"/>
<text text-anchor="middle" x="265.5" y="-336.95" font-family="Times,serif" font-size="14.00">misc2&#45;table&#45;16&#45;16.png</text>
</a>
</g>
</g>
<!-- n76&#45;&gt;n4 -->
<g id="edge37" class="edge">
<title>n76&#45;&gt;n4</title>
<g id="a_edge37"><a xlink:title="misc2&#45;table&#45;16&#45;16.png : optimize_png.pl">
<path fill="none" stroke="#5de9c5" d="M401.09,-440C392.31,-440 386,-440 386,-440 386,-440 386,-348 386,-348 386,-348 347.64,-348 347.64,-348"/>
<polygon fill="#5de9c5" stroke="#5de9c5" points="347.64,-344.5 337.64,-348 347.64,-351.5 347.64,-344.5"/>
</a>
</g>
</g>
<!-- n3 -->
<g id="node35" class="node">
<title>n3</title>
<g id="a_node35"><a xlink:title="perl optimize_png.pl t_misc1_table.png &gt; misc1&#45;table&#45;8&#45;16.png">
<polygon fill="white" stroke="#4a3689" stroke-width="3" points="332,-306 199,-306 199,-270 332,-270 332,-306"/>
<text text-anchor="middle" x="265.5" y="-282.95" font-family="Times,serif" font-size="14.00">misc1&#45;table&#45;8&#45;16.png</text>
</a>
</g>
</g>
<!-- n76&#45;&gt;n3 -->
<g id="edge41" class="edge">
<title>n76&#45;&gt;n3</title>
<g id="a_edge41"><a xlink:title="misc1&#45;table&#45;8&#45;16.png : optimize_png.pl">
<path fill="none" stroke="#5de9c5" d="M401.28,-444C384.4,-444 370,-444 370,-444 370,-444 370,-294 370,-294 370,-294 344.45,-294 344.45,-294"/>
<polygon fill="#5de9c5" stroke="#5de9c5" points="344.45,-290.5 334.45,-294 344.45,-297.5 344.45,-290.5"/>
</a>
</g>
</g>
<!-- n2 -->
<g id="node37" class="node">
<title>n2</title>
<g id="a_node37"><a xlink:title="perl optimize_png.pl t_sprites64.png &gt; sprites2&#45;table&#45;64&#45;64.png">
<polygon fill="white" stroke="#787c26" stroke-width="3" points="148.75,-436 0,-436 0,-400 148.75,-400 148.75,-436"/>
<text text-anchor="middle" x="74.38" y="-412.95" font-family="Times,serif" font-size="14.00">sprites2&#45;table&#45;64&#45;64.png</text>
</a>
</g>
</g>
<!-- n76&#45;&gt;n2 -->
<g id="edge45" class="edge">
<title>n76&#45;&gt;n2</title>
<g id="a_edge45"><a xlink:title="sprites2&#45;table&#45;64&#45;64.png : optimize_png.pl">
<path fill="none" stroke="#5de9c5" d="M454,-431.54C454,-426.8 454,-423 454,-423 454,-423 160.83,-423 160.83,-423"/>
<polygon fill="#5de9c5" stroke="#5de9c5" points="160.83,-419.5 150.83,-423 160.83,-426.5 160.83,-419.5"/>
</a>
</g>
</g>
<!-- n1 -->
<g id="node47" class="node">
<title>n1</title>
<g id="a_node47"><a xlink:title="perl optimize_png.pl t_sprites32.png &gt; sprites1&#45;table&#45;32&#45;32.png">
<polygon fill="white" stroke="#995df0" stroke-width="3" points="148.75,-321 0,-321 0,-285 148.75,-285 148.75,-321"/>
<text text-anchor="middle" x="74.38" y="-297.95" font-family="Times,serif" font-size="14.00">sprites1&#45;table&#45;32&#45;32.png</text>
</a>
</g>
</g>
<!-- n76&#45;&gt;n1 -->
<g id="edge59" class="edge">
<title>n76&#45;&gt;n1</title>
<g id="a_edge59"><a xlink:title="sprites1&#45;table&#45;32&#45;32.png : optimize_png.pl">
<path fill="none" stroke="#5de9c5" d="M400.95,-448C378.74,-448 358,-448 358,-448 358,-448 358,-313.5 358,-313.5 358,-313.5 161.01,-313.5 161.01,-313.5"/>
<polygon fill="#5de9c5" stroke="#5de9c5" points="161.01,-310 151.01,-313.5 161.01,-317 161.01,-310"/>
</a>
</g>
</g>
<!-- n82 -->
<g id="node24" class="node">
<title>n82</title>
<g id="a_node24"><a xlink:title="gcc &#45;march=native &#45;O3 &#45;Wall &#45;Wextra &#45;pedantic generate_wall_tiles.c &#45;lpng &#45;o generate_wall_tiles.exe">
<polygon fill="white" stroke="#cc57aa" points="525.75,-576 382.25,-576 382.25,-540 525.75,-540 525.75,-576"/>
<text text-anchor="middle" x="454" y="-552.95" font-family="Times,serif" font-size="14.00">generate_wall_tiles.exe</text>
</a>
</g>
</g>
<!-- n82&#45;&gt;n7 -->
<g id="edge22" class="edge">
<title>n82&#45;&gt;n7</title>
<g id="a_edge22"><a xlink:title="wall&#45;table&#45;8&#45;8.png : generate_wall_tiles.exe">
<path fill="none" stroke="#cc57aa" d="M381.93,-571.33C381.93,-571.33 335.98,-571.33 335.98,-571.33"/>
<polygon fill="#cc57aa" stroke="#cc57aa" points="335.98,-567.83 325.98,-571.33 335.98,-574.83 335.98,-567.83"/>
</a>
</g>
</g>
<!-- n123 -->
<g id="node25" class="node">
<title>n123</title>
<g id="a_node25"><a xlink:title="generate_wall_tiles.c&#10;(no actions)">
<polygon fill="white" stroke="#913725" points="692.5,-522 561.75,-522 561.75,-486 692.5,-486 692.5,-522"/>
<text text-anchor="middle" x="627.12" y="-498.95" font-family="Times,serif" font-size="14.00">generate_wall_tiles.c</text>
</a>
</g>
</g>
<!-- n123&#45;&gt;n82 -->
<g id="edge23" class="edge">
<title>n123&#45;&gt;n82</title>
<g id="a_edge23"><a xlink:title="generate_wall_tiles.exe : generate_wall_tiles.c">
<path fill="none" stroke="#913725" d="M561.44,-513C540.19,-513 522,-513 522,-513 522,-513 522,-528.7 522,-528.7"/>
<polygon fill="#913725" stroke="#913725" points="518.5,-528.7 522,-538.7 525.5,-528.7 518.5,-528.7"/>
</a>
</g>
</g>
<!-- n81&#45;&gt;n6 -->
<g id="edge25" class="edge">
<title>n81&#45;&gt;n6</title>
<g id="a_edge25"><a xlink:title="text&#45;table&#45;176&#45;16.png : t_text_table.png">
<path fill="none" stroke="#2ba07a" d="M401.74,-515C401.74,-515 344.77,-515 344.77,-515"/>
<polygon fill="#2ba07a" stroke="#2ba07a" points="344.77,-511.5 334.77,-515 344.77,-518.5 344.77,-511.5"/>
</a>
</g>
</g>
<!-- n95&#45;&gt;n81 -->
<g id="edge26" class="edge">
<title>n95&#45;&gt;n81</title>
<g id="a_edge26"><a xlink:title="t_text_table.png : t_gray_misc.png">
<path fill="none" stroke="#8d3bfa" d="M572.88,-406.8C545.49,-406.8 518,-406.8 518,-406.8 518,-406.8 518,-495 518,-495 518,-495 516.83,-495 516.83,-495"/>
<polygon fill="#8d3bfa" stroke="#8d3bfa" points="517.26,-491.5 507.26,-495 517.26,-498.5 517.26,-491.5"/>
</a>
</g>
</g>
<!-- n95&#45;&gt;n80 -->
<g id="edge35" class="edge">
<title>n95&#45;&gt;n80</title>
<g id="a_edge35"><a xlink:title="t_console_table.png : t_gray_misc.png">
<path fill="none" stroke="#8d3bfa" d="M573.3,-399.6C573.3,-399.6 527.58,-399.6 527.58,-399.6"/>
<polygon fill="#8d3bfa" stroke="#8d3bfa" points="527.58,-396.1 517.58,-399.6 527.58,-403.1 527.58,-396.1"/>
</a>
</g>
</g>
<!-- n95&#45;&gt;n79 -->
<g id="edge39" class="edge">
<title>n95&#45;&gt;n79</title>
<g id="a_edge39"><a xlink:title="t_misc2_table.png : t_gray_misc.png">
<path fill="none" stroke="#8d3bfa" d="M573.12,-392.4C568.19,-392.4 565,-392.4 565,-392.4 565,-392.4 565,-336 565,-336 565,-336 523.43,-336 523.43,-336"/>
<polygon fill="#8d3bfa" stroke="#8d3bfa" points="523.43,-332.5 513.43,-336 523.43,-339.5 523.43,-332.5"/>
</a>
</g>
</g>
<!-- n95&#45;&gt;n78 -->
<g id="edge43" class="edge">
<title>n95&#45;&gt;n78</title>
<g id="a_edge43"><a xlink:title="t_misc1_table.png : t_gray_misc.png">
<path fill="none" stroke="#8d3bfa" d="M572.98,-385.2C569.29,-385.2 567,-385.2 567,-385.2 567,-385.2 567,-288 567,-288 567,-288 523.49,-288 523.49,-288"/>
<polygon fill="#8d3bfa" stroke="#8d3bfa" points="523.49,-284.5 513.49,-288 523.49,-291.5 523.49,-284.5"/>
</a>
</g>
</g>
<!-- n103&#45;&gt;n95 -->
<g id="edge29" class="edge">
<title>n103&#45;&gt;n95</title>
<g id="a_edge29"><a xlink:title="t_gray_misc.png : t_misc.svg">
<path fill="none" stroke="#6a66f2" d="M763.31,-456C724.83,-456 671,-456 671,-456 671,-456 671,-425.33 671,-425.33"/>
<polygon fill="#6a66f2" stroke="#6a66f2" points="674.5,-425.33 671,-415.33 667.5,-425.33 674.5,-425.33"/>
</a>
</g>
</g>
<!-- n104 -->
<g id="node30" class="node">
<title>n104</title>
<g id="a_node30"><a xlink:title="misc.svg&#10;(no actions)">
<polygon fill="white" stroke="#7520dc" points="1033.5,-522 968.75,-522 968.75,-486 1033.5,-486 1033.5,-522"/>
<text text-anchor="middle" x="1001.12" y="-498.95" font-family="Times,serif" font-size="14.00">misc.svg</text>
</a>
</g>
</g>
<!-- n104&#45;&gt;n103 -->
<g id="edge32" class="edge">
<title>n104&#45;&gt;n103</title>
<g id="a_edge32"><a xlink:title="t_misc.svg : misc.svg">
<path fill="none" stroke="#7520dc" d="M968.5,-504C919.87,-504 834,-504 834,-504 834,-504 834,-479.28 834,-479.28"/>
<polygon fill="#7520dc" stroke="#7520dc" points="837.5,-479.28 834,-469.28 830.5,-479.28 837.5,-479.28"/>
</a>
</g>
</g>
<!-- n80&#45;&gt;n5 -->
<g id="edge34" class="edge">
<title>n80&#45;&gt;n5</title>
<g id="a_edge34"><a xlink:title="console&#45;table&#45;192&#45;128.png : t_console_table.png">
<path fill="none" stroke="#55ed24" d="M391.23,-396C391.23,-396 358.44,-396 358.44,-396"/>
<polygon fill="#55ed24" stroke="#55ed24" points="358.44,-392.5 348.44,-396 358.44,-399.5 358.44,-392.5"/>
</a>
</g>
</g>
<!-- n79&#45;&gt;n4 -->
<g id="edge38" class="edge">
<title>n79&#45;&gt;n4</title>
<g id="a_edge38"><a xlink:title="misc2&#45;table&#45;16&#45;16.png : t_misc2_table.png">
<path fill="none" stroke="#b1e1db" d="M395.39,-336C395.39,-336 347.67,-336 347.67,-336"/>
<polygon fill="#b1e1db" stroke="#b1e1db" points="347.67,-332.5 337.67,-336 347.67,-339.5 347.67,-332.5"/>
</a>
</g>
</g>
<!-- n78&#45;&gt;n3 -->
<g id="edge42" class="edge">
<title>n78&#45;&gt;n3</title>
<g id="a_edge42"><a xlink:title="misc1&#45;table&#45;8&#45;16.png : t_misc1_table.png">
<path fill="none" stroke="#f686ef" d="M395.39,-282C395.39,-282 344.31,-282 344.31,-282"/>
<polygon fill="#f686ef" stroke="#f686ef" points="344.31,-278.5 334.31,-282 344.31,-285.5 344.31,-278.5"/>
</a>
</g>
</g>
<!-- n77 -->
<g id="node38" class="node">
<title>n77</title>
<g id="a_node38"><a xlink:title="convert t_sprites.png +repage &#45;crop 1024x2560+0+1792 t_sprites64.png">
<polygon fill="white" stroke="#37ae2d" points="315.12,-252 215.88,-252 215.88,-216 315.12,-216 315.12,-252"/>
<text text-anchor="middle" x="265.5" y="-228.95" font-family="Times,serif" font-size="14.00">t_sprites64.png</text>
</a>
</g>
</g>
<!-- n77&#45;&gt;n2 -->
<g id="edge46" class="edge">
<title>n77&#45;&gt;n2</title>
<g id="a_edge46"><a xlink:title="sprites2&#45;table&#45;64&#45;64.png : t_sprites64.png">
<path fill="none" stroke="#37ae2d" d="M215.46,-234C190.68,-234 166,-234 166,-234 166,-234 166,-407 166,-407 166,-407 161.04,-407 161.04,-407"/>
<polygon fill="#37ae2d" stroke="#37ae2d" points="161.04,-403.5 151.04,-407 161.04,-410.5 161.04,-403.5"/>
</a>
</g>
</g>
<!-- n93 -->
<g id="node39" class="node">
<title>n93</title>
<g id="a_node39"><a xlink:title="./fs_dither.exe t_gray_sprites.png t_sprites.png">
<polygon fill="white" stroke="#4c59e4" points="496.88,-252 411.12,-252 411.12,-216 496.88,-216 496.88,-252"/>
<text text-anchor="middle" x="454" y="-228.95" font-family="Times,serif" font-size="14.00">t_sprites.png</text>
</a>
</g>
</g>
<!-- n93&#45;&gt;n77 -->
<g id="edge47" class="edge">
<title>n93&#45;&gt;n77</title>
<g id="a_edge47"><a xlink:title="t_sprites64.png : t_sprites.png">
<path fill="none" stroke="#4c59e4" d="M410.75,-234C410.75,-234 326.55,-234 326.55,-234"/>
<polygon fill="#4c59e4" stroke="#4c59e4" points="326.55,-230.5 316.55,-234 326.55,-237.5 326.55,-230.5"/>
</a>
</g>
</g>
<!-- n75 -->
<g id="node48" class="node">
<title>n75</title>
<g id="a_node48"><a xlink:title="convert t_sprites.png +repage &#45;crop 1024x1792+0+0 t_sprites32.png">
<polygon fill="white" stroke="#bfc46a" points="315.12,-198 215.88,-198 215.88,-162 315.12,-162 315.12,-198"/>
<text text-anchor="middle" x="265.5" y="-174.95" font-family="Times,serif" font-size="14.00">t_sprites32.png</text>
</a>
</g>
</g>
<!-- n93&#45;&gt;n75 -->
<g id="edge60" class="edge">
<title>n93&#45;&gt;n75</title>
<g id="a_edge60"><a xlink:title="t_sprites32.png : t_sprites.png">
<path fill="none" stroke="#4c59e4" d="M454,-215.67C454,-198.03 454,-174 454,-174 454,-174 326.52,-174 326.52,-174"/>
<polygon fill="#4c59e4" stroke="#4c59e4" points="326.52,-170.5 316.52,-174 326.52,-177.5 326.52,-170.5"/>
</a>
</g>
</g>
<!-- n97&#45;&gt;n93 -->
<g id="edge49" class="edge">
<title>n97&#45;&gt;n93</title>
<g id="a_edge49"><a xlink:title="t_sprites.png : t_gray_sprites.png">
<path fill="none" stroke="#e9425a" d="M576,-323.76C576,-294.43 576,-240 576,-240 576,-240 508.36,-240 508.36,-240"/>
<polygon fill="#e9425a" stroke="#e9425a" points="508.36,-236.5 498.36,-240 508.36,-243.5 508.36,-236.5"/>
</a>
</g>
</g>
<!-- n91&#45;&gt;n97 -->
<g id="edge50" class="edge">
<title>n91&#45;&gt;n97</title>
<g id="a_edge50"><a xlink:title="t_gray_sprites.png : t_sprites.svg">
<path fill="none" stroke="#dc0086" d="M759.19,-336C759.19,-336 696.7,-336 696.7,-336"/>
<polygon fill="#dc0086" stroke="#dc0086" points="696.7,-332.5 686.7,-336 696.7,-339.5 696.7,-332.5"/>
</a>
</g>
</g>
<!-- n102 -->
<g id="node42" class="node">
<title>n102</title>
<g id="a_node42"><a xlink:title="add_papers.pl&#10;(no actions)">
<polygon fill="white" stroke="#de387a" points="1047,-360 955.25,-360 955.25,-324 1047,-324 1047,-360"/>
<text text-anchor="middle" x="1001.12" y="-336.95" font-family="Times,serif" font-size="14.00">add_papers.pl</text>
</a>
</g>
</g>
<!-- n102&#45;&gt;n91 -->
<g id="edge56" class="edge">
<title>n102&#45;&gt;n91</title>
<g id="a_edge56"><a xlink:title="t_sprites.svg : add_papers.pl">
<path fill="none" stroke="#de387a" d="M954.8,-338.4C954.8,-338.4 854.71,-338.4 854.71,-338.4"/>
<polygon fill="#de387a" stroke="#de387a" points="854.71,-334.9 844.71,-338.4 854.71,-341.9 854.71,-334.9"/>
</a>
</g>
</g>
<!-- n101 -->
<g id="node43" class="node">
<title>n101</title>
<g id="a_node43"><a xlink:title="add_rocks.pl&#10;(no actions)">
<polygon fill="white" stroke="#9c8f05" points="1044,-306 958.25,-306 958.25,-270 1044,-270 1044,-306"/>
<text text-anchor="middle" x="1001.12" y="-282.95" font-family="Times,serif" font-size="14.00">add_rocks.pl</text>
</a>
</g>
</g>
<!-- n101&#45;&gt;n91 -->
<g id="edge55" class="edge">
<title>n101&#45;&gt;n91</title>
<g id="a_edge55"><a xlink:title="t_sprites.svg : add_rocks.pl">
<path fill="none" stroke="#9c8f05" d="M958.19,-279C899.39,-279 801,-279 801,-279 801,-279 801,-312.78 801,-312.78"/>
<polygon fill="#9c8f05" stroke="#9c8f05" points="797.5,-312.78 801,-322.78 804.5,-312.78 797.5,-312.78"/>
</a>
</g>
</g>
<!-- n98 -->
<g id="node44" class="node">
<title>n98</title>
<g id="a_node44"><a xlink:title="sprites.svg&#10;(no actions)">
<polygon fill="white" stroke="#9c6608" points="1038,-252 964.25,-252 964.25,-216 1038,-216 1038,-252"/>
<text text-anchor="middle" x="1001.12" y="-228.95" font-family="Times,serif" font-size="14.00">sprites.svg</text>
</a>
</g>
</g>
<!-- n98&#45;&gt;n91 -->
<g id="edge52" class="edge">
<title>n98&#45;&gt;n91</title>
<g id="a_edge52"><a xlink:title="t_sprites.svg : sprites.svg">
<path fill="none" stroke="#9c6608" d="M963.88,-234C943.36,-234 922,-234 922,-234 922,-234 922,-331.2 922,-331.2 922,-331.2 854.9,-331.2 854.9,-331.2"/>
<polygon fill="#9c6608" stroke="#9c6608" points="854.9,-327.7 844.9,-331.2 854.9,-334.7 854.9,-327.7"/>
</a>
</g>
</g>
<!-- n90 -->
<g id="node45" class="node">
<title>n90</title>
<g id="a_node45"><a xlink:title="gcc &#45;march=native &#45;O3 &#45;Wall &#45;Wextra &#45;pedantic fs_dither.c &#45;lpng &#45;o fs_dither.exe">
<polygon fill="white" stroke="#101c6f" points="670,-252 584.25,-252 584.25,-216 670,-216 670,-252"/>
<text text-anchor="middle" x="627.12" y="-228.95" font-family="Times,serif" font-size="14.00">fs_dither.exe</text>
</a>
</g>
</g>
<!-- n90&#45;&gt;n93 -->
<g id="edge48" class="edge">
<title>n90&#45;&gt;n93</title>
<g id="a_edge48"><a xlink:title="t_sprites.png : fs_dither.exe">
<path fill="none" stroke="#101c6f" d="M583.88,-228C583.88,-228 508.29,-228 508.29,-228"/>
<polygon fill="#101c6f" stroke="#101c6f" points="508.29,-224.5 498.29,-228 508.29,-231.5 508.29,-224.5"/>
</a>
</g>
</g>
<!-- n115 -->
<g id="node46" class="node">
<title>n115</title>
<g id="a_node46"><a xlink:title="fs_dither.c&#10;(no actions)">
<polygon fill="white" stroke="#f862a9" points="837.88,-252 764.88,-252 764.88,-216 837.88,-216 837.88,-252"/>
<text text-anchor="middle" x="801.38" y="-228.95" font-family="Times,serif" font-size="14.00">fs_dither.c</text>
</a>
</g>
</g>
<!-- n115&#45;&gt;n90 -->
<g id="edge57" class="edge">
<title>n115&#45;&gt;n90</title>
<g id="a_edge57"><a xlink:title="fs_dither.exe : fs_dither.c">
<path fill="none" stroke="#f862a9" d="M764.42,-234C764.42,-234 681.48,-234 681.48,-234"/>
<polygon fill="#f862a9" stroke="#f862a9" points="681.48,-230.5 671.48,-234 681.48,-237.5 681.48,-230.5"/>
</a>
</g>
</g>
<!-- n75&#45;&gt;n1 -->
<g id="edge58" class="edge">
<title>n75&#45;&gt;n1</title>
<g id="a_edge58"><a xlink:title="sprites1&#45;table&#45;32&#45;32.png : t_sprites32.png">
<path fill="none" stroke="#bfc46a" d="M215.69,-180C158.94,-180 74,-180 74,-180 74,-180 74,-272.51 74,-272.51"/>
<polygon fill="#bfc46a" stroke="#bfc46a" points="70.5,-272.51 74,-282.51 77.5,-272.51 70.5,-272.51"/>
</a>
</g>
</g>
</g>
</svg>
