<?xml version="1.0" encoding="UTF-8" standalone="no"?>
<!DOCTYPE svg PUBLIC "-//W3C//DTD SVG 1.1//EN"
 "http://www.w3.org/Graphics/SVG/1.1/DTD/svg11.dtd">
<!-- Generated by graphviz version 8.0.5 (20230508.1809)
 -->
<!-- Title: G Pages: 1 -->
<svg width="299pt" height="294pt"
 viewBox="0.00 0.00 298.66 294.00" xmlns="http://www.w3.org/2000/svg" xmlns:xlink="http://www.w3.org/1999/xlink">
<g id="graph0" class="graph" transform="scale(1 1) rotate(0) translate(4 290)">
<title>G</title>
<polygon fill="white" stroke="none" points="-4,4 -4,-290 294.66,-290 294.66,4 -4,4"/>
<!-- game_select -->
<g id="node1" class="node">
<title>game_select</title>
<ellipse fill="white" stroke="black" cx="150.29" cy="-268" rx="56.98" ry="18"/>
<text text-anchor="middle" x="150.29" y="-262.95" font-family="Times,serif" font-size="14.00">game_select</text>
</g>
<!-- game_init -->
<g id="node2" class="node">
<title>game_init</title>
<ellipse fill="white" stroke="black" cx="150.29" cy="-179.5" rx="48.28" ry="18"/>
<text text-anchor="middle" x="150.29" y="-174.45" font-family="Times,serif" font-size="14.00">game_init</text>
</g>
<!-- game_select&#45;&gt;game_init -->
<g id="edge1" class="edge">
<title>game_select&#45;&gt;game_init</title>
<path fill="none" stroke="black" d="M150.29,-249.91C150.29,-238.14 150.29,-222.23 150.29,-208.61"/>
<polygon fill="black" stroke="black" points="153.79,-208.85 150.29,-198.85 146.79,-208.85 153.79,-208.85"/>
<text text-anchor="middle" x="168.66" y="-218.7" font-family="Times,serif" font-size="14.00">A or B</text>
</g>
<!-- game_loop -->
<g id="node3" class="node">
<title>game_loop</title>
<ellipse fill="white" stroke="black" cx="150.29" cy="-91" rx="52.38" ry="18"/>
<text text-anchor="middle" x="150.29" y="-85.95" font-family="Times,serif" font-size="14.00">game_loop</text>
</g>
<!-- game_init&#45;&gt;game_loop -->
<g id="edge2" class="edge">
<title>game_init&#45;&gt;game_loop</title>
<path fill="none" stroke="black" d="M150.29,-161.41C150.29,-149.64 150.29,-133.73 150.29,-120.11"/>
<polygon fill="black" stroke="black" points="153.79,-120.35 150.29,-110.35 146.79,-120.35 153.79,-120.35"/>
</g>
<!-- game_complete -->
<g id="node4" class="node">
<title>game_complete</title>
<ellipse fill="white" stroke="black" cx="70.29" cy="-18" rx="70.29" ry="18"/>
<text text-anchor="middle" x="70.29" y="-12.95" font-family="Times,serif" font-size="14.00">game_complete</text>
</g>
<!-- game_loop&#45;&gt;game_complete -->
<g id="edge3" class="edge">
<title>game_loop&#45;&gt;game_complete</title>
<path fill="none" stroke="black" d="M132.14,-73.89C121.82,-64.74 108.71,-53.1 97.22,-42.9"/>
<polygon fill="black" stroke="black" points="100.01,-40.81 90.2,-36.79 95.36,-46.04 100.01,-40.81"/>
</g>
<!-- game_over -->
<g id="node5" class="node">
<title>game_over</title>
<ellipse fill="white" stroke="black" cx="238.29" cy="-18" rx="52.38" ry="18"/>
<text text-anchor="middle" x="238.29" y="-12.95" font-family="Times,serif" font-size="14.00">game_over</text>
</g>
<!-- game_loop&#45;&gt;game_over -->
<g id="edge4" class="edge">
<title>game_loop&#45;&gt;game_over</title>
<path fill="none" stroke="black" d="M170.26,-73.89C181.96,-64.45 196.93,-52.37 209.85,-41.95"/>
<polygon fill="black" stroke="black" points="211.81,-44.05 217.4,-35.05 207.42,-38.6 211.81,-44.05"/>
</g>
<!-- game_complete&#45;&gt;game_select -->
<g id="edge7" class="edge">
<title>game_complete&#45;&gt;game_select</title>
<path fill="none" stroke="black" d="M66.86,-36.15C65.95,-42.09 65.23,-48.82 65.29,-55 65.89,-119.54 62.83,-140.6 93.29,-197.5 102.05,-213.86 114.97,-230.03 126.3,-242.64"/>
<polygon fill="black" stroke="black" points="123.1,-244.41 132.46,-249.38 128.24,-239.66 123.1,-244.41"/>
<text text-anchor="middle" x="75.79" y="-130.2" font-family="Times,serif" font-size="14.00">B</text>
</g>
<!-- game_complete&#45;&gt;game_init -->
<g id="edge5" class="edge">
<title>game_complete&#45;&gt;game_init</title>
<path fill="none" stroke="black" d="M68.7,-36.18C67.71,-55.01 68.3,-85.64 79.54,-109 88.59,-127.81 104.93,-144.39 119.63,-156.63"/>
<polygon fill="black" stroke="black" points="117.02,-159.83 127.02,-163.32 121.38,-154.35 117.02,-159.83"/>
<text text-anchor="middle" x="85.16" y="-85.95" font-family="Times,serif" font-size="14.00">A</text>
</g>
<!-- game_over&#45;&gt;game_select -->
<g id="edge8" class="edge">
<title>game_over&#45;&gt;game_select</title>
<path fill="none" stroke="black" d="M243.06,-36.31C244.38,-41.91 245.63,-48.18 246.29,-54 249.05,-78.43 245.98,-85.08 240.29,-109 235.73,-128.15 208.35,-209.52 191.29,-232 188.13,-236.16 184.4,-240.17 180.5,-243.9"/>
<polygon fill="black" stroke="black" points="178.53,-240.85 173.37,-250.11 183.18,-246.09 178.53,-240.85"/>
<text text-anchor="middle" x="239.79" y="-130.2" font-family="Times,serif" font-size="14.00">B</text>
</g>
<!-- game_over&#45;&gt;game_init -->
<g id="edge6" class="edge">
<title>game_over&#45;&gt;game_init</title>
<path fill="none" stroke="black" d="M235.36,-36.45C231.69,-55.24 224.25,-85.6 211.29,-109 201.97,-125.82 188.02,-142.11 175.81,-154.69"/>
<polygon fill="black" stroke="black" points="173.71,-151.84 169.11,-161.39 178.65,-156.8 173.71,-151.84"/>
<text text-anchor="middle" x="231.16" y="-85.95" font-family="Times,serif" font-size="14.00">A</text>
</g>
</g>
</svg>
